<?xml version="1.0" encoding="UTF-8"?>
<svg xmlns="http://www.w3.org/2000/svg" xmlns:xlink="http://www.w3.org/1999/xlink" width="640pt" height="387pt" viewBox="0 0 640 387" version="1.1">
<g id="surface182">
<rect x="0" y="0" width="640" height="387" style="fill:rgb(100%,100%,100%);fill-opacity:1;stroke:none;"/>
<path style="fill:none;stroke-width:30;stroke-linecap:butt;stroke-linejoin:miter;stroke:rgb(0%,0%,0%);stroke-opacity:1;stroke-dasharray:12,120;stroke-miterlimit:10;" d="M 360 6540 L 12220 6540 " transform="matrix(0.05,0,0,0.05,0,0)"/>
<path style="fill:none;stroke-width:20;stroke-linecap:butt;stroke-linejoin:miter;stroke:rgb(0%,0%,0%);stroke-opacity:1;stroke-miterlimit:10;" d="M 350 6548.984375 L 350 6548.984375 " transform="matrix(0.05,0,0,0.05,0,0)"/>
<path style="fill:none;stroke-width:20;stroke-linecap:butt;stroke-linejoin:miter;stroke:rgb(0%,0%,0%);stroke-opacity:1;stroke-miterlimit:10;" d="M 12220 6548.984375 L 12220 6548.984375 " transform="matrix(0.05,0,0,0.05,0,0)"/>
<path style="fill:none;stroke-width:30;stroke-linecap:butt;stroke-linejoin:miter;stroke:rgb(0%,0%,0%);stroke-opacity:1;stroke-dasharray:12,120;stroke-miterlimit:10;" d="M 360 5200 L 12220 5200 " transform="matrix(0.05,0,0,0.05,0,0)"/>
<path style="fill:none;stroke-width:20;stroke-linecap:butt;stroke-linejoin:miter;stroke:rgb(0%,0%,0%);stroke-opacity:1;stroke-miterlimit:10;" d="M 350 5200 L 350 5200 " transform="matrix(0.05,0,0,0.05,0,0)"/>
<path style="fill:none;stroke-width:20;stroke-linecap:butt;stroke-linejoin:miter;stroke:rgb(0%,0%,0%);stroke-opacity:1;stroke-miterlimit:10;" d="M 12220 5200 L 12220 5200 " transform="matrix(0.05,0,0,0.05,0,0)"/>
<path style="fill:none;stroke-width:30;stroke-linecap:butt;stroke-linejoin:miter;stroke:rgb(0%,0%,0%);stroke-opacity:1;stroke-dasharray:12,120;stroke-miterlimit:10;" d="M 360 3860 L 12220 3860 " transform="matrix(0.05,0,0,0.05,0,0)"/>
<path style="fill:none;stroke-width:20;stroke-linecap:butt;stroke-linejoin:miter;stroke:rgb(0%,0%,0%);stroke-opacity:1;stroke-miterlimit:10;" d="M 350 3851.015625 L 350 3851.015625 " transform="matrix(0.05,0,0,0.05,0,0)"/>
<path style="fill:none;stroke-width:20;stroke-linecap:butt;stroke-linejoin:miter;stroke:rgb(0%,0%,0%);stroke-opacity:1;stroke-miterlimit:10;" d="M 12220 3851.015625 L 12220 3851.015625 " transform="matrix(0.05,0,0,0.05,0,0)"/>
<path style="fill:none;stroke-width:30;stroke-linecap:butt;stroke-linejoin:miter;stroke:rgb(0%,0%,0%);stroke-opacity:1;stroke-dasharray:12,120;stroke-miterlimit:10;" d="M 360 2500 L 12220 2500 " transform="matrix(0.05,0,0,0.05,0,0)"/>
<path style="fill:none;stroke-width:20;stroke-linecap:butt;stroke-linejoin:miter;stroke:rgb(0%,0%,0%);stroke-opacity:1;stroke-miterlimit:10;" d="M 350 2502.03125 L 350 2502.03125 " transform="matrix(0.05,0,0,0.05,0,0)"/>
<path style="fill:none;stroke-width:20;stroke-linecap:butt;stroke-linejoin:miter;stroke:rgb(0%,0%,0%);stroke-opacity:1;stroke-miterlimit:10;" d="M 12220 2502.03125 L 12220 2502.03125 " transform="matrix(0.05,0,0,0.05,0,0)"/>
<path style="fill:none;stroke-width:30;stroke-linecap:butt;stroke-linejoin:miter;stroke:rgb(0%,0%,0%);stroke-opacity:1;stroke-dasharray:12,120;stroke-miterlimit:10;" d="M 360 1160 L 12220 1160 " transform="matrix(0.05,0,0,0.05,0,0)"/>
<path style="fill:none;stroke-width:20;stroke-linecap:butt;stroke-linejoin:miter;stroke:rgb(0%,0%,0%);stroke-opacity:1;stroke-miterlimit:10;" d="M 350 1152.96875 L 350 1152.96875 " transform="matrix(0.05,0,0,0.05,0,0)"/>
<path style="fill:none;stroke-width:20;stroke-linecap:butt;stroke-linejoin:miter;stroke:rgb(0%,0%,0%);stroke-opacity:1;stroke-miterlimit:10;" d="M 12220 1152.96875 L 12220 1152.96875 " transform="matrix(0.05,0,0,0.05,0,0)"/>
<path style="fill:none;stroke-width:30;stroke-linecap:butt;stroke-linejoin:miter;stroke:rgb(0%,0%,0%);stroke-opacity:1;stroke-dasharray:12,120;stroke-miterlimit:10;" d="M 900 6820 L 900 880 " transform="matrix(0.05,0,0,0.05,0,0)"/>
<path style="fill:none;stroke-width:20;stroke-linecap:butt;stroke-linejoin:miter;stroke:rgb(0%,0%,0%);stroke-opacity:1;stroke-miterlimit:10;" d="M 902.03125 6818.984375 L 902.03125 6818.984375 " transform="matrix(0.05,0,0,0.05,0,0)"/>
<path style="fill:none;stroke-width:20;stroke-linecap:butt;stroke-linejoin:miter;stroke:rgb(0%,0%,0%);stroke-opacity:1;stroke-miterlimit:10;" d="M 902.03125 882.96875 L 902.03125 882.96875 " transform="matrix(0.05,0,0,0.05,0,0)"/>
<path style="fill:none;stroke-width:30;stroke-linecap:butt;stroke-linejoin:miter;stroke:rgb(0%,0%,0%);stroke-opacity:1;stroke-dasharray:12,120;stroke-miterlimit:10;" d="M 2280 6820 L 2280 880 " transform="matrix(0.05,0,0,0.05,0,0)"/>
<path style="fill:none;stroke-width:20;stroke-linecap:butt;stroke-linejoin:miter;stroke:rgb(0%,0%,0%);stroke-opacity:1;stroke-miterlimit:10;" d="M 2282.03125 6818.984375 L 2282.03125 6818.984375 " transform="matrix(0.05,0,0,0.05,0,0)"/>
<path style="fill:none;stroke-width:20;stroke-linecap:butt;stroke-linejoin:miter;stroke:rgb(0%,0%,0%);stroke-opacity:1;stroke-miterlimit:10;" d="M 2282.03125 882.96875 L 2282.03125 882.96875 " transform="matrix(0.05,0,0,0.05,0,0)"/>
<path style="fill:none;stroke-width:30;stroke-linecap:butt;stroke-linejoin:miter;stroke:rgb(0%,0%,0%);stroke-opacity:1;stroke-dasharray:12,120;stroke-miterlimit:10;" d="M 3660 6820 L 3660 880 " transform="matrix(0.05,0,0,0.05,0,0)"/>
<path style="fill:none;stroke-width:20;stroke-linecap:butt;stroke-linejoin:miter;stroke:rgb(0%,0%,0%);stroke-opacity:1;stroke-miterlimit:10;" d="M 3662.96875 6818.984375 L 3662.96875 6818.984375 " transform="matrix(0.05,0,0,0.05,0,0)"/>
<path style="fill:none;stroke-width:20;stroke-linecap:butt;stroke-linejoin:miter;stroke:rgb(0%,0%,0%);stroke-opacity:1;stroke-miterlimit:10;" d="M 3662.96875 882.96875 L 3662.96875 882.96875 " transform="matrix(0.05,0,0,0.05,0,0)"/>
<path style="fill:none;stroke-width:30;stroke-linecap:butt;stroke-linejoin:miter;stroke:rgb(0%,0%,0%);stroke-opacity:1;stroke-dasharray:12,120;stroke-miterlimit:10;" d="M 5040 6820 L 5040 880 " transform="matrix(0.05,0,0,0.05,0,0)"/>
<path style="fill:none;stroke-width:20;stroke-linecap:butt;stroke-linejoin:miter;stroke:rgb(0%,0%,0%);stroke-opacity:1;stroke-miterlimit:10;" d="M 5042.96875 6818.984375 L 5042.96875 6818.984375 " transform="matrix(0.05,0,0,0.05,0,0)"/>
<path style="fill:none;stroke-width:20;stroke-linecap:butt;stroke-linejoin:miter;stroke:rgb(0%,0%,0%);stroke-opacity:1;stroke-miterlimit:10;" d="M 5042.96875 882.96875 L 5042.96875 882.96875 " transform="matrix(0.05,0,0,0.05,0,0)"/>
<path style="fill:none;stroke-width:30;stroke-linecap:butt;stroke-linejoin:miter;stroke:rgb(0%,0%,0%);stroke-opacity:1;stroke-dasharray:12,120;stroke-miterlimit:10;" d="M 6420 6820 L 6420 880 " transform="matrix(0.05,0,0,0.05,0,0)"/>
<path style="fill:none;stroke-width:20;stroke-linecap:butt;stroke-linejoin:miter;stroke:rgb(0%,0%,0%);stroke-opacity:1;stroke-miterlimit:10;" d="M 6422.96875 6818.984375 L 6422.96875 6818.984375 " transform="matrix(0.05,0,0,0.05,0,0)"/>
<path style="fill:none;stroke-width:20;stroke-linecap:butt;stroke-linejoin:miter;stroke:rgb(0%,0%,0%);stroke-opacity:1;stroke-miterlimit:10;" d="M 6422.96875 882.96875 L 6422.96875 882.96875 " transform="matrix(0.05,0,0,0.05,0,0)"/>
<path style="fill:none;stroke-width:30;stroke-linecap:butt;stroke-linejoin:miter;stroke:rgb(0%,0%,0%);stroke-opacity:1;stroke-dasharray:12,120;stroke-miterlimit:10;" d="M 7800 6820 L 7800 880 " transform="matrix(0.05,0,0,0.05,0,0)"/>
<path style="fill:none;stroke-width:20;stroke-linecap:butt;stroke-linejoin:miter;stroke:rgb(0%,0%,0%);stroke-opacity:1;stroke-miterlimit:10;" d="M 7802.96875 6818.984375 L 7802.96875 6818.984375 " transform="matrix(0.05,0,0,0.05,0,0)"/>
<path style="fill:none;stroke-width:20;stroke-linecap:butt;stroke-linejoin:miter;stroke:rgb(0%,0%,0%);stroke-opacity:1;stroke-miterlimit:10;" d="M 7802.96875 882.96875 L 7802.96875 882.96875 " transform="matrix(0.05,0,0,0.05,0,0)"/>
<path style="fill:none;stroke-width:30;stroke-linecap:butt;stroke-linejoin:miter;stroke:rgb(0%,0%,0%);stroke-opacity:1;stroke-dasharray:12,120;stroke-miterlimit:10;" d="M 9180 6820 L 9180 880 " transform="matrix(0.05,0,0,0.05,0,0)"/>
<path style="fill:none;stroke-width:20;stroke-linecap:butt;stroke-linejoin:miter;stroke:rgb(0%,0%,0%);stroke-opacity:1;stroke-miterlimit:10;" d="M 9182.96875 6818.984375 L 9182.96875 6818.984375 " transform="matrix(0.05,0,0,0.05,0,0)"/>
<path style="fill:none;stroke-width:20;stroke-linecap:butt;stroke-linejoin:miter;stroke:rgb(0%,0%,0%);stroke-opacity:1;stroke-miterlimit:10;" d="M 9182.96875 882.96875 L 9182.96875 882.96875 " transform="matrix(0.05,0,0,0.05,0,0)"/>
<path style="fill:none;stroke-width:30;stroke-linecap:butt;stroke-linejoin:miter;stroke:rgb(0%,0%,0%);stroke-opacity:1;stroke-dasharray:12,120;stroke-miterlimit:10;" d="M 10560 6820 L 10560 880 " transform="matrix(0.05,0,0,0.05,0,0)"/>
<path style="fill:none;stroke-width:20;stroke-linecap:butt;stroke-linejoin:miter;stroke:rgb(0%,0%,0%);stroke-opacity:1;stroke-miterlimit:10;" d="M 10563.984375 6818.984375 L 10563.984375 6818.984375 " transform="matrix(0.05,0,0,0.05,0,0)"/>
<path style="fill:none;stroke-width:20;stroke-linecap:butt;stroke-linejoin:miter;stroke:rgb(0%,0%,0%);stroke-opacity:1;stroke-miterlimit:10;" d="M 10563.984375 882.96875 L 10563.984375 882.96875 " transform="matrix(0.05,0,0,0.05,0,0)"/>
<path style="fill:none;stroke-width:30;stroke-linecap:butt;stroke-linejoin:miter;stroke:rgb(0%,0%,0%);stroke-opacity:1;stroke-dasharray:12,120;stroke-miterlimit:10;" d="M 11940 6820 L 11940 880 " transform="matrix(0.05,0,0,0.05,0,0)"/>
<path style="fill:none;stroke-width:20;stroke-linecap:butt;stroke-linejoin:miter;stroke:rgb(0%,0%,0%);stroke-opacity:1;stroke-miterlimit:10;" d="M 11943.984375 6818.984375 L 11943.984375 6818.984375 " transform="matrix(0.05,0,0,0.05,0,0)"/>
<path style="fill:none;stroke-width:20;stroke-linecap:butt;stroke-linejoin:miter;stroke:rgb(0%,0%,0%);stroke-opacity:1;stroke-miterlimit:10;" d="M 11943.984375 882.96875 L 11943.984375 882.96875 " transform="matrix(0.05,0,0,0.05,0,0)"/>
<path style="fill:none;stroke-width:40;stroke-linecap:butt;stroke-linejoin:miter;stroke:rgb(0%,0%,0%);stroke-opacity:1;stroke-miterlimit:10;" d="M 360 3860 L 12220 3860 " transform="matrix(0.05,0,0,0.05,0,0)"/>
<path style="fill:none;stroke-width:40;stroke-linecap:butt;stroke-linejoin:miter;stroke:rgb(0%,0%,0%);stroke-opacity:1;stroke-miterlimit:10;" d="M 900 6820 L 900 880 " transform="matrix(0.05,0,0,0.05,0,0)"/>
<path style="fill:none;stroke-width:80;stroke-linecap:butt;stroke-linejoin:miter;stroke:rgb(100%,0%,0%);stroke-opacity:1;stroke-miterlimit:10;" d="M 350 4643.984375 L 470 4487.96875 L 590 4320 L 710 4143.984375 L 830 3962.03125 L 948.984375 3777.96875 L 1068.984375 3596.015625 L 1188.984375 3417.96875 L 1308.984375 3247.96875 L 1428.984375 3090 L 1548.984375 2945 L 1668.984375 2817.96875 L 1788.984375 2708.984375 L 1908.984375 2622.03125 L 2028.984375 2557.96875 L 2147.96875 2517.96875 L 2267.96875 2502.03125 L 2387.96875 2512.03125 L 2507.96875 2546.015625 L 2627.96875 2605 L 2747.96875 2687.03125 L 2867.96875 2791.015625 L 2987.96875 2913.984375 L 3107.96875 3055 L 3227.96875 3210 L 3347.03125 3377.96875 L 3467.03125 3553.984375 L 3587.03125 3736.015625 L 3707.03125 3918.984375 L 3827.03125 4102.03125 L 3947.03125 4280 L 4067.03125 4450 L 4187.03125 4608.984375 L 4307.03125 4753.984375 L 4427.03125 4882.03125 L 4546.015625 4991.015625 L 4666.015625 5077.96875 L 4786.015625 5142.96875 L 4906.015625 5183.984375 L 5026.015625 5200 L 5146.015625 5191.015625 L 5266.015625 5157.03125 L 5386.015625 5098.984375 L 5506.015625 5017.03125 L 5626.015625 4913.984375 L 5745 4791.015625 L 5865 4651.015625 L 5985 4496.015625 L 6105 4327.96875 L 6225 4152.03125 L 6345 3971.015625 L 6465 3787.03125 L 6585 3603.984375 L 6705 3426.015625 L 6825 3256.015625 L 6943.984375 3097.03125 L 7063.984375 2951.015625 L 7183.984375 2822.96875 L 7303.984375 2713.984375 L 7423.984375 2626.015625 L 7543.984375 2560 L 7663.984375 2518.984375 L 7783.984375 2502.03125 L 7903.984375 2511.015625 L 8023.984375 2543.984375 L 8142.96875 2602.03125 L 8262.96875 2682.96875 L 8382.96875 2785 L 8502.96875 2907.96875 L 8622.96875 3047.96875 L 8742.96875 3202.96875 L 8862.96875 3370 L 8982.96875 3545 L 9102.96875 3727.03125 L 9222.96875 3911.015625 L 9342.03125 4093.984375 L 9462.03125 4272.03125 L 9582.03125 4442.03125 L 9702.03125 4602.03125 L 9822.03125 4747.03125 L 9942.03125 4876.015625 L 10062.03125 4986.015625 L 10182.03125 5075 L 10302.03125 5141.015625 L 10422.03125 5182.03125 L 10541.015625 5200 L 10661.015625 5192.03125 L 10781.015625 5158.984375 L 10901.015625 5102.03125 L 11021.015625 5021.015625 L 11141.015625 4918.984375 L 11261.015625 4797.03125 L 11381.015625 4657.96875 L 11501.015625 4502.96875 L 11621.015625 4336.015625 L 11740 4161.015625 L 11860 3978.984375 L 11980 3795 L 12100 3612.96875 L 12220 3433.984375 " transform="matrix(0.05,0,0,0.05,0,0)"/>
<path style="fill:none;stroke-width:80;stroke-linecap:butt;stroke-linejoin:miter;stroke:rgb(0%,0%,100%);stroke-opacity:1;stroke-miterlimit:10;" d="M 350 5437.03125 L 470 5125 L 590 4790 L 710 4437.03125 L 830 4072.96875 L 948.984375 3706.015625 L 1068.984375 3340 L 1188.984375 2985 L 1308.984375 2645 L 1428.984375 2327.96875 L 1548.984375 2038.984375 L 1668.984375 1783.984375 L 1788.984375 1567.03125 L 1908.984375 1392.96875 L 2028.984375 1265 L 2147.96875 1183.984375 L 2267.96875 1152.96875 L 2387.96875 1172.03125 L 2507.96875 1241.015625 L 2627.96875 1358.984375 L 2747.96875 1522.96875 L 2867.96875 1730 L 2987.96875 1977.03125 L 3107.96875 2257.96875 L 3227.96875 2568.984375 L 3347.03125 2903.984375 L 3467.03125 3257.03125 L 3587.03125 3620 L 3707.03125 3987.96875 L 3827.03125 4352.96875 L 3947.03125 4708.984375 L 4067.03125 5048.984375 L 4187.03125 5367.03125 L 4307.03125 5656.015625 L 4427.03125 5912.03125 L 4546.015625 6130 L 4666.015625 6305 L 4786.015625 6435 L 4906.015625 6517.03125 L 5026.015625 6548.984375 L 5146.015625 6531.015625 L 5266.015625 6462.96875 L 5386.015625 6346.015625 L 5506.015625 6182.96875 L 5626.015625 5977.03125 L 5745 5731.015625 L 5865 5451.015625 L 5985 5140 L 6105 4806.015625 L 6225 4453.984375 L 6345 4090 L 6465 3722.96875 L 6585 3357.03125 L 6705 3001.015625 L 6825 2661.015625 L 6943.984375 2342.03125 L 7063.984375 2052.03125 L 7183.984375 1795 L 7303.984375 1577.03125 L 7423.984375 1400 L 7543.984375 1268.984375 L 7663.984375 1187.03125 L 7783.984375 1152.96875 L 7903.984375 1170 L 8023.984375 1237.03125 L 8142.96875 1352.96875 L 8262.96875 1513.984375 L 8382.96875 1720 L 8502.96875 1963.984375 L 8622.96875 2243.984375 L 8742.96875 2553.984375 L 8862.96875 2887.96875 L 8982.96875 3240 L 9102.96875 3602.96875 L 9222.96875 3971.015625 L 9342.03125 4336.015625 L 9462.03125 4692.96875 L 9582.03125 5033.984375 L 9702.03125 5352.96875 L 9822.03125 5643.984375 L 9942.03125 5901.015625 L 10062.03125 6121.015625 L 10182.03125 6297.96875 L 10302.03125 6430 L 10422.03125 6513.984375 L 10541.015625 6547.96875 L 10661.015625 6532.96875 L 10781.015625 6467.03125 L 10901.015625 6352.96875 L 11021.015625 6192.03125 L 11141.015625 5987.96875 L 11261.015625 5743.984375 L 11381.015625 5465 L 11501.015625 5155 L 11621.015625 4822.03125 L 11740 4470 L 11860 4107.03125 L 11980 3740 L 12100 3373.984375 L 12220 3017.03125 " transform="matrix(0.05,0,0,0.05,0,0)"/>
</g>
</svg>
