<?xml version="1.0" encoding="iso-8859-1"?>
<!-- Generator: Adobe Illustrator 17.1.0, SVG Export Plug-In . SVG Version: 6.00 Build 0)  -->
<!DOCTYPE svg PUBLIC "-//W3C//DTD SVG 1.1//EN" "http://www.w3.org/Graphics/SVG/1.1/DTD/svg11.dtd">
<svg version="1.1" id="Capa_1" xmlns="http://www.w3.org/2000/svg" xmlns:xlink="http://www.w3.org/1999/xlink" x="0px" y="0px"
	 viewBox="0 0 341.79 341.79" style="enable-background:new 0 0 341.79 341.79;" xml:space="preserve">
<g>
	<path d="M137.304,91.933c0.954,0.647,2.072,0.99,3.232,0.99h0.012c3.181,0,5.768-2.587,5.768-5.766c0-0.54-0.074-1.074-0.221-1.591
		c-2.665-11.698-1.423-21.086,3.693-27.902c6.415-8.546,9.254-19.523,7.596-29.361c-1.472-8.762-6.182-16.043-13.609-21.051
		c-1.93-1.309-4.591-1.297-6.507,0.025c-1.963,1.351-2.885,3.727-2.345,6.067c2.887,12.317,0.241,20.158-6.386,32.08
		c-4.312,7.754-6.071,16.475-4.955,24.557C124.854,79.168,129.604,86.764,137.304,91.933z"/>
	<path d="M185.838,88.114c0.904,0.617,1.959,0.943,3.052,0.943h0.005c2.993,0,5.427-2.436,5.427-5.429
		c0-0.495-0.067-0.986-0.201-1.464c-1.867-8.229-1.021-14.79,2.516-19.503c4.907-6.534,7.077-14.942,5.805-22.489
		c-1.137-6.767-4.774-12.391-10.52-16.267c-1.807-1.219-4.251-1.233-6.123,0.038c-1.829,1.269-2.706,3.572-2.19,5.701
		c2.046,8.729,0.242,14.067-4.578,22.733c-3.294,5.927-4.637,12.6-3.779,18.788C176.232,78.265,179.903,84.132,185.838,88.114z"/>
	<path d="M89.137,88.11c0.904,0.619,1.961,0.947,3.057,0.947h0.005c2.993,0,5.427-2.436,5.427-5.429c0-0.497-0.068-0.99-0.203-1.468
		c-1.865-8.228-1.019-14.787,2.518-19.499c4.907-6.535,7.077-14.943,5.805-22.49c-1.137-6.766-4.774-12.39-10.517-16.264
		c-1.807-1.221-4.248-1.239-6.125,0.036c-1.829,1.268-2.706,3.571-2.189,5.701c2.046,8.729,0.242,14.067-4.578,22.733
		c-3.294,5.925-4.637,12.599-3.78,18.789C79.537,78.265,83.208,84.132,89.137,88.11z"/>
	<path d="M291.177,134.159c-6.335,0-15.32,1.316-23.941,7.112c-0.5-1.048-1.004-2.095-1.53-3.135
		c-0.081-0.16-0.163-0.331-0.249-0.51c-1.379-2.87-4.25-8.845-16.645-8.845H30.31c-4.664,0-11.079,1.709-15.16,9.851
		C5.097,158.692,0,180.251,0,202.71c0,53.794,30.255,103.18,78.959,128.885c0.759,0.401,7.626,3.917,14.779,3.917h93.824
		c6.521,0,12-2.574,13.524-3.363c21.832-11.304,39.997-27.318,53.478-46.355c1.996,0.436,4.209,0.695,6.678,0.695
		c15.153,0,34.965-9.506,50.473-24.219c19.393-18.398,30.074-42.883,30.074-68.943C341.79,160.701,319.085,134.159,291.177,134.159z
		 M271.753,253.554c6.085-16.009,9.352-33.175,9.352-50.844c0-9.977-1.008-19.773-3.005-29.338
		c4.749-9.203,10.199-9.213,13.077-9.213c11.173,0,20.612,13.356,20.612,29.167C311.79,227.259,287.432,246.636,271.753,253.554z"/>
</g>
<g>
</g>
<g>
</g>
<g>
</g>
<g>
</g>
<g>
</g>
<g>
</g>
<g>
</g>
<g>
</g>
<g>
</g>
<g>
</g>
<g>
</g>
<g>
</g>
<g>
</g>
<g>
</g>
<g>
</g>
</svg>
