<?xml version="1.0" encoding="iso-8859-1"?>
<!-- Generator: Adobe Illustrator 18.1.1, SVG Export Plug-In . SVG Version: 6.00 Build 0)  -->
<svg version="1.1" id="Capa_1" xmlns="http://www.w3.org/2000/svg" xmlns:xlink="http://www.w3.org/1999/xlink" x="0px" y="0px"
	 viewBox="0 0 25.417 25.417" style="enable-background:new 0 0 25.417 25.417;" xml:space="preserve">
<g>
	<g>
		<ellipse cx="6.29" cy="13.224" rx="1.779" ry="1.681"/>
		<path d="M12.567,12.513c0,0.93-0.795,1.683-1.78,1.683c-0.983,0-1.774-0.752-1.774-1.683c0-0.929,0.791-1.683,1.774-1.683
			C11.772,10.83,12.567,11.584,12.567,12.513z"/>
		<path d="M17.01,11.994c0,0.931-0.798,1.683-1.779,1.683c-0.98,0-1.776-0.752-1.776-1.683c0-0.926,0.796-1.681,1.776-1.681
			C16.212,10.313,17.01,11.068,17.01,11.994z"/>
		<path d="M21.315,11.541c0,0.929-0.795,1.683-1.774,1.683c-0.985,0-1.78-0.754-1.78-1.683s0.795-1.683,1.78-1.683
			C20.521,9.858,21.315,10.612,21.315,11.541z"/>
		<ellipse cx="23.639" cy="10.313" rx="1.778" ry="1.681"/>
		<ellipse cx="23.093" cy="5.981" rx="1.778" ry="1.682"/>
		<path d="M21.315,3.848c0,0.929-0.795,1.681-1.774,1.681c-0.985,0-1.78-0.752-1.78-1.681c0-0.931,0.795-1.683,1.78-1.683
			C20.521,2.165,21.315,2.917,21.315,3.848z"/>
		<ellipse cx="15.232" cy="3.202" rx="1.778" ry="1.68"/>
		<path d="M12.823,3.525c0,0.928-0.795,1.68-1.775,1.68c-0.985,0-1.779-0.752-1.779-1.68c0-0.929,0.794-1.682,1.779-1.682
			C12.028,1.843,12.823,2.596,12.823,3.525z"/>
		<ellipse cx="6.29" cy="4.88" rx="1.779" ry="1.681"/>
		<path d="M4.511,7.663c0,0.928-0.792,1.683-1.777,1.683c-0.98,0-1.778-0.754-1.778-1.683s0.798-1.682,1.778-1.682
			C3.719,5.981,4.511,6.734,4.511,7.663z"/>
		<path d="M3.556,11.994c0,0.931-0.794,1.683-1.779,1.683C0.795,13.677,0,12.925,0,11.994c0-0.926,0.795-1.681,1.776-1.681
			C2.762,10.313,3.556,11.068,3.556,11.994z"/>
		<path d="M3.556,15.877c0,0.928-0.794,1.682-1.779,1.682C0.795,17.559,0,16.805,0,15.877c0-0.929,0.795-1.682,1.776-1.682
			C2.762,14.195,3.556,14.948,3.556,15.877z"/>
		<path d="M4.788,19.691c0,0.931-0.799,1.683-1.778,1.683c-0.985,0-1.78-0.752-1.78-1.683c0-0.929,0.795-1.683,1.78-1.683
			C3.989,18.009,4.788,18.762,4.788,19.691z"/>
		<ellipse cx="6.688" cy="22.212" rx="1.777" ry="1.683"/>
		<path d="M12.567,22.212c0,0.931-0.795,1.683-1.78,1.683c-0.983,0-1.774-0.752-1.774-1.683c0-0.929,0.791-1.681,1.774-1.681
			C11.772,20.531,12.567,21.283,12.567,22.212z"/>
		<ellipse cx="15.232" cy="21.889" rx="1.778" ry="1.682"/>
		<path d="M21.315,20.531c0,0.929-0.795,1.681-1.774,1.681c-0.985,0-1.78-0.752-1.78-1.681c0-0.929,0.795-1.682,1.78-1.682
			C20.521,18.85,21.315,19.602,21.315,20.531z"/>
		<ellipse cx="22.614" cy="17.167" rx="1.778" ry="1.683"/>
	</g>
	<g>
	</g>
	<g>
	</g>
	<g>
	</g>
	<g>
	</g>
	<g>
	</g>
	<g>
	</g>
	<g>
	</g>
	<g>
	</g>
	<g>
	</g>
	<g>
	</g>
	<g>
	</g>
	<g>
	</g>
	<g>
	</g>
	<g>
	</g>
	<g>
	</g>
</g>
<g>
</g>
<g>
</g>
<g>
</g>
<g>
</g>
<g>
</g>
<g>
</g>
<g>
</g>
<g>
</g>
<g>
</g>
<g>
</g>
<g>
</g>
<g>
</g>
<g>
</g>
<g>
</g>
<g>
</g>
</svg>
