<?xml version="1.0" standalone="no"?>
<!DOCTYPE svg PUBLIC "-//W3C//DTD SVG 20010904//EN"
 "http://www.w3.org/TR/2001/REC-SVG-20010904/DTD/svg10.dtd">
<svg version="1.0" xmlns="http://www.w3.org/2000/svg"
 width="1280.000000pt" height="706.000000pt" viewBox="0 0 1280.000000 706.000000"
 preserveAspectRatio="xMidYMid meet">
<metadata>
Created by potrace 1.15, written by Peter Selinger 2001-2017
</metadata>
<g transform="translate(0.000000,706.000000) scale(0.100000,-0.100000)"
fill="#000000" stroke="none">
<path d="M4755 7053 c-111 -4 -377 -21 -515 -33 -325 -30 -681 -99 -910 -178
-219 -75 -379 -176 -428 -268 -12 -24 -27 -44 -34 -44 -7 0 -9 -24 -5 -78 6
-95 19 -123 153 -328 421 -644 814 -1137 1290 -1620 405 -410 795 -709 1202
-922 79 -41 142 -76 140 -77 -3 -3 -1860 -625 -3929 -1316 -575 -192 -1054
-349 -1063 -349 -15 0 -16 55 -16 665 l0 665 105 0 c87 0 105 3 105 15 0 12
-18 15 -105 15 l-105 0 2 328 3 327 103 3 c136 4 134 22 -3 22 l-105 0 0 330
0 330 106 0 c80 0 105 3 102 13 -3 8 -36 13 -106 15 l-102 3 2 327 3 327 103
3 c56 1 102 7 102 12 0 5 -46 11 -102 12 l-103 3 -3 328 -2 327 105 0 c88 0
105 3 105 15 0 13 -17 15 -112 13 l-113 -3 0 -2064 c0 -1824 2 -2065 15 -2072
12 -6 6423 -1516 6470 -1523 8 -2 35 5 60 14 25 9 58 20 74 24 25 6 26 5 16
-14 -6 -12 -11 -51 -11 -87 0 -85 20 -117 77 -121 52 -4 88 31 87 85 -2 59
-50 89 -110 69 -19 -6 -23 -4 -23 14 0 11 11 32 25 46 20 20 29 23 44 14 11
-5 23 -15 26 -20 7 -12 35 -13 35 -2 0 5 -9 18 -21 31 -12 12 -19 24 -16 27 5
6 868 294 879 294 5 0 -17 -34 -47 -74 -30 -41 -55 -84 -55 -95 0 -19 6 -21
55 -21 54 0 55 0 55 -30 0 -20 5 -30 15 -30 10 0 15 10 15 30 0 23 4 30 20 30
11 0 20 7 20 15 0 8 -9 15 -20 15 -18 0 -20 7 -20 88 l0 87 390 130 c386 129
391 130 388 105 -4 -33 19 -33 35 0 17 34 71 40 87 10 17 -32 3 -57 -46 -86
-53 -31 -84 -68 -84 -100 0 -23 2 -24 85 -24 69 0 85 3 85 15 0 12 -14 15 -65
15 -83 0 -86 17 -10 65 81 53 99 105 48 144 -14 12 -24 22 -22 24 2 1 167 56
367 123 l362 121 0 -69 c0 -102 23 -138 90 -138 49 0 70 39 70 129 0 51 -5 84
-15 98 -14 19 -13 21 13 31 31 13 743 252 748 252 2 0 4 -7 4 -15 0 -8 7 -15
15 -15 8 0 15 7 15 15 0 8 11 22 25 31 52 34 103 -27 59 -71 -9 -8 -28 -22
-42 -29 -38 -20 -69 -56 -77 -88 l-7 -28 86 0 c70 0 86 3 86 15 0 12 -14 15
-65 15 -36 0 -65 4 -65 8 0 13 41 48 77 66 18 9 37 25 43 35 13 25 13 78 0 86
-5 3 -10 10 -10 15 0 4 186 70 413 146 226 75 418 139 426 142 7 3 -10 -27
-39 -67 -30 -41 -50 -78 -46 -86 4 -11 20 -15 55 -15 47 0 50 -2 53 -27 4 -37
32 -37 36 -1 2 16 9 28 18 28 8 0 14 7 14 15 0 8 -7 15 -15 15 -12 0 -15 15
-15 79 l0 79 350 117 c229 76 350 121 350 130 0 9 -33 21 -97 36 -119 26 -36
7 -1748 410 -770 182 -1791 422 -2270 535 -478 113 -888 210 -910 216 l-40 11
80 22 c382 107 777 316 1200 634 426 320 943 859 1405 1465 94 124 116 159
130 210 15 58 15 65 -3 125 -74 251 -528 520 -1262 749 -157 49 -433 125 -567
156 -38 9 -96 23 -130 31 -131 30 -256 57 -355 76 -57 10 -151 28 -210 40
-107 20 -145 26 -293 49 -41 6 -100 15 -130 20 -249 38 -610 83 -800 100 -63
5 -164 15 -225 20 -424 40 -1126 59 -1580 43z m1016 -3596 c220 -100 507 -177
812 -217 203 -26 579 -4 807 49 41 9 78 2 413 -76 202 -48 367 -89 367 -92 0
-3 -43 -19 -95 -35 -63 -19 -95 -34 -95 -44 0 -8 6 -12 13 -9 6 2 64 21 127
42 l115 37 405 -96 c223 -53 455 -108 515 -123 l110 -26 -102 -34 c-57 -19
-103 -39 -103 -44 0 -15 21 -11 130 26 57 19 113 35 124 35 35 1 1026 -234
1018 -241 -4 -4 -45 -19 -92 -34 -47 -15 -89 -31 -94 -36 -24 -22 11 -16 125
22 l124 41 475 -111 c261 -62 493 -117 515 -123 l40 -11 -94 -31 c-52 -18 -97
-38 -99 -44 -6 -18 3 -16 132 28 65 22 122 38 125 36 3 -3 220 -55 481 -116
261 -62 489 -116 505 -120 l30 -7 -25 -10 c-14 -6 -204 -70 -423 -144 l-399
-133 -81 17 c-48 10 -85 13 -90 8 -9 -9 51 -31 84 -31 9 0 19 -3 22 -6 8 -9
-659 -234 -692 -234 -13 0 -38 -8 -55 -19 -75 -45 -109 -46 -248 -5 -12 4 -18
0 -18 -10 0 -9 8 -16 18 -17 9 0 35 -6 57 -13 l40 -12 -360 -119 c-198 -65
-389 -129 -424 -143 -64 -24 -66 -24 -138 -8 -85 18 -103 20 -103 7 0 -5 25
-15 56 -21 31 -7 52 -15 48 -20 -5 -4 -197 -70 -426 -146 l-416 -138 -64 13
c-35 8 -73 16 -85 19 -42 8 -24 -17 20 -28 23 -6 49 -14 57 -17 8 -3 -178 -70
-414 -149 l-430 -144 -75 20 c-47 12 -79 16 -85 10 -10 -10 -7 -12 67 -32 l48
-13 -428 -142 -428 -143 -150 34 c-316 72 -841 197 -858 204 -13 5 9 16 82 40
56 18 101 38 101 43 0 15 -21 11 -141 -30 l-115 -38 -512 120 c-282 66 -509
124 -505 128 5 3 46 19 93 34 100 33 104 35 93 46 -5 5 -60 -9 -129 -33 l-121
-41 -504 118 c-277 65 -508 121 -513 126 -4 4 32 20 80 35 90 28 113 39 101
50 -3 3 -56 -11 -118 -31 -62 -21 -124 -37 -138 -37 -29 1 -1002 230 -1009
237 -6 5 17 14 116 46 44 14 72 28 72 37 0 8 -6 12 -12 10 -7 -3 -63 -22 -125
-43 l-111 -37 -89 20 c-170 38 -918 214 -933 219 -8 3 31 21 88 40 56 19 102
39 102 44 0 15 -24 10 -141 -30 l-113 -39 -505 119 c-278 65 -507 119 -510
119 -20 0 57 27 425 151 l419 141 55 -12 c87 -20 120 -23 120 -13 0 6 -28 17
-62 25 -36 9 -57 18 -48 22 8 3 202 68 430 144 l415 138 79 -18 c44 -10 81
-16 84 -14 11 12 -12 25 -53 32 -25 3 -47 9 -49 13 -3 4 188 71 422 149 l427
142 65 -15 c36 -9 73 -18 83 -21 10 -3 17 0 17 9 0 9 -20 18 -56 26 -30 7 -54
15 -51 17 2 2 192 67 423 145 l419 141 60 -12 c99 -21 115 -23 115 -12 0 6
-25 16 -55 23 -30 7 -55 15 -55 18 0 11 824 281 855 281 17 0 55 -7 85 -15 66
-18 70 -18 70 -5 0 12 -4 14 -70 31 l-45 12 230 78 c127 42 235 78 241 78 6 1
45 -14 85 -32z m6049 -1707 l0 -50 -35 0 c-19 0 -35 3 -35 6 0 8 60 94 65 94
3 0 5 -22 5 -50z m-1790 -546 c13 -32 13 -115 1 -147 -17 -45 -60 -45 -80 -1
-16 37 -14 126 5 152 21 31 62 29 74 -4z m-1773 -711 c-3 -2 -21 -3 -41 -1
l-37 3 38 54 38 54 3 -52 c2 -29 1 -55 -1 -58z m-893 -279 c19 -18 21 -65 4
-82 -7 -7 -24 -12 -40 -12 -48 0 -66 66 -26 94 28 20 43 20 62 0z"/>
<path d="M57 5991 c-73 -102 -73 -111 -3 -111 54 0 55 0 58 -32 4 -46 28 -49
28 -4 0 29 4 36 20 36 11 0 20 7 20 15 0 8 -9 15 -20 15 -18 0 -20 7 -20 80 0
58 -4 80 -13 80 -7 0 -38 -36 -70 -79z m53 -31 l0 -50 -40 0 -40 0 36 50 c20
28 38 50 40 50 2 0 4 -22 4 -50z"/>
<path d="M60 5383 c-28 -11 -50 -36 -50 -60 0 -31 26 -30 34 2 7 29 49 44 72
24 23 -19 14 -62 -15 -69 -36 -8 -36 -25 1 -35 59 -18 48 -95 -13 -95 -19 0
-34 8 -45 25 -21 32 -48 34 -39 3 17 -57 89 -76 139 -37 20 16 26 29 26 59 0
21 -6 43 -15 50 -12 10 -12 15 1 35 22 34 9 74 -32 91 -36 15 -41 15 -64 7z"/>
<path d="M35 4675 c-27 -26 -34 -65 -12 -65 7 0 18 14 24 30 9 24 17 30 41 30
16 0 35 -7 42 -14 23 -29 7 -59 -52 -98 -42 -28 -60 -47 -66 -71 -5 -17 -7
-35 -5 -39 2 -5 40 -8 84 -8 64 0 79 3 79 15 0 12 -14 15 -65 15 -36 0 -65 4
-65 8 0 16 26 39 71 65 56 32 73 68 54 114 -21 50 -89 60 -130 18z"/>
<path d="M86 3995 c-9 -14 -25 -25 -36 -25 -11 0 -20 -7 -20 -15 0 -9 9 -15
25 -15 25 0 25 -1 25 -90 0 -83 1 -90 20 -90 19 0 20 7 20 124 0 69 -4 127 -9
130 -5 3 -16 -5 -25 -19z"/>
<path d="M34 3309 c-29 -32 -32 -163 -5 -206 18 -28 27 -33 59 -33 63 0 77 24
77 130 0 72 -3 92 -19 109 -26 29 -86 29 -112 0z m80 -12 c21 -16 32 -95 22
-151 -7 -37 -34 -60 -59 -50 -48 18 -50 175 -3 206 15 11 20 10 40 -5z"/>
<path d="M12660 2145 c-18 -19 -25 -40 -28 -85 -5 -72 1 -98 28 -128 44 -47
140 -10 140 54 0 62 -62 110 -110 84 -27 -15 -33 -9 -24 24 9 38 46 61 73 46
12 -6 21 -15 21 -20 0 -6 7 -10 15 -10 21 0 19 23 -3 43 -28 26 -84 22 -112
-8z m99 -126 c13 -24 13 -29 -2 -53 -22 -33 -60 -34 -81 -4 -21 30 -20 44 5
69 26 26 59 21 78 -12z"/>
<path d="M264 1785 c-40 -16 -54 -52 -54 -136 0 -61 3 -73 25 -94 53 -54 140
-15 138 62 -2 60 -59 94 -115 69 -26 -12 -24 24 3 58 25 31 40 33 64 6 17 -18
45 -27 45 -14 0 39 -61 68 -106 49z m57 -125 c13 -7 19 -21 19 -43 0 -38 -15
-57 -46 -57 -48 0 -70 55 -37 92 18 20 36 23 64 8z"/>
<path d="M87 1644 c-13 -14 6 -24 44 -24 28 0 39 4 39 15 0 11 -11 15 -38 15
-21 0 -42 -3 -45 -6z"/>
<path d="M1340 1458 c-77 -105 -78 -118 -5 -118 54 0 55 0 55 -30 0 -20 5 -30
15 -30 10 0 15 10 15 30 0 23 4 30 20 30 11 0 20 7 20 15 0 8 -9 15 -20 15
-18 0 -20 7 -20 85 0 49 -4 85 -10 85 -5 0 -37 -37 -70 -82z m50 -33 l0 -55
-41 0 -40 0 38 55 c21 30 39 55 41 55 1 0 2 -25 2 -55z"/>
<path d="M1170 1380 c0 -5 18 -10 40 -10 22 0 40 5 40 10 0 6 -18 10 -40 10
-22 0 -40 -4 -40 -10z"/>
<path d="M2401 1263 c-24 -20 -32 -64 -14 -70 7 -3 17 7 22 21 13 31 40 46 67
36 50 -19 41 -68 -21 -104 -49 -29 -85 -70 -85 -97 0 -17 9 -19 85 -19 69 0
85 3 85 15 0 12 -14 15 -66 15 -79 0 -80 10 -8 57 59 40 74 58 74 93 0 59 -90
93 -139 53z"/>
<path d="M2250 1125 c0 -13 9 -16 43 -13 23 2 42 8 42 13 0 6 -19 11 -42 13
-34 3 -43 0 -43 -13z"/>
<path d="M3497 1019 c-41 -24 -58 -114 -36 -192 7 -28 19 -42 42 -53 74 -35
124 28 114 146 -4 54 -9 68 -32 87 -28 25 -59 29 -88 12z m79 -54 c27 -67 7
-175 -34 -175 -36 0 -54 34 -54 103 0 77 13 107 48 107 19 0 28 -8 40 -35z"/>
<path d="M8940 806 c0 -12 11 -16 46 -16 59 0 55 24 -4 28 -33 2 -42 0 -42
-12z"/>
<path d="M4560 750 c-24 -24 -27 -60 -5 -60 8 0 15 6 15 14 0 16 37 46 57 46
20 0 43 -30 43 -56 0 -19 -13 -33 -56 -60 -37 -24 -61 -47 -70 -70 -8 -18 -14
-36 -14 -39 0 -3 38 -5 85 -5 69 0 85 3 85 15 0 12 -14 15 -66 15 -74 0 -80
11 -25 45 71 43 94 70 93 106 0 22 -8 40 -23 51 -30 25 -94 23 -119 -2z"/>
<path d="M5670 438 c-77 -105 -78 -118 -5 -118 54 0 55 0 55 -30 0 -20 5 -30
15 -30 10 0 15 10 15 30 0 23 4 30 20 30 11 0 20 7 20 15 0 8 -9 15 -20 15
-18 0 -20 7 -20 85 0 51 -4 85 -10 85 -6 0 -37 -37 -70 -82z m50 -33 l0 -55
-41 0 -40 0 38 55 c21 30 39 55 41 55 1 0 2 -25 2 -55z"/>
<path d="M8030 500 c0 -5 20 -10 45 -10 25 0 45 5 45 10 0 6 -20 10 -45 10
-25 0 -45 -4 -45 -10z"/>
<path d="M6749 255 c-34 -18 -49 -61 -49 -137 0 -52 3 -63 29 -89 38 -38 74
-38 112 0 31 31 36 55 18 94 -17 38 -88 63 -104 37 -10 -16 -25 -11 -25 9 0
24 37 71 56 71 8 0 23 -9 34 -20 23 -23 40 -26 40 -7 0 38 -70 65 -111 42z
m71 -130 c16 -20 16 -61 0 -80 -19 -23 -62 -14 -79 16 -13 24 -13 29 2 53 20
29 57 35 77 11z"/>
<path d="M7127 204 c-13 -14 6 -24 44 -24 28 0 39 4 39 15 0 11 -11 15 -38 15
-21 0 -42 -3 -45 -6z"/>
</g>
</svg>
