<?xml version="1.0" encoding="utf-8"?>
<!-- Generator: Adobe Illustrator 24.3.0, SVG Export Plug-In . SVG Version: 6.00 Build 0)  -->
<svg version="1.1" id="Layer_1" xmlns="http://www.w3.org/2000/svg" xmlns:xlink="http://www.w3.org/1999/xlink" x="0px" y="0px"
	 viewBox="0 0 1280 1024" style="enable-background:new 0 0 1280 1024;" xml:space="preserve">
<style type="text/css">
	.st0{fill:#6D80BC;}
	.st1{opacity:0.23;}
	.st2{fill:#B9005E;}
	.st3{fill:#C4D059;}
	.st4{opacity:0.21;fill:#FFFFFF;stroke:#B80071;stroke-width:16;stroke-miterlimit:10;}
</style>
<g>
	<path class="st0" d="M380.5,493.1v65.4c0,1.8-1.4,3.3-3.2,3.3l0,0c-1.8,0-3.2-1.5-3.2-3.3v-65.4c0-1.8,1.4-3.3,3.2-3.3l0,0
		C379.1,489.8,380.5,491.3,380.5,493.1z"/>
	<path class="st0" d="M344.8,522.6h65.1c1.7,0,3.1,1.4,3.1,3.2l0,0c0,1.8-1.4,3.2-3.1,3.2h-65.1c-1.7,0-3.1-1.4-3.1-3.2l0,0
		C341.8,524,343.1,522.6,344.8,522.6z"/>
</g>
<g class="st1">
	<path class="st2" d="M192.7,263.3c-27.7,0-53.8-12-73.5-33.8c-19.5-21.6-30.2-50-30.2-80s10.7-58.5,30.2-80
		c19.7-21.8,45.8-33.8,73.5-33.8c2.1,0,4.3,0.1,6.5,0.2l7.4,8.4l-5.7,101.4l75.4,57.4l1.9,10.6C259,244.8,227,263.3,192.7,263.3z"/>
	<path class="st3" d="M192.7,43.7c2,0,3.9,0.1,5.9,0.2l-5.9,105.6l78.8,60c-17.8,28.6-47.4,45.8-78.8,45.8
		c-52.5,0-95.7-47.8-95.7-105.8C97,91.4,140.2,43.7,192.7,43.7 M192.7,27.7c-15.2,0-30,3.3-43.9,9.9c-13.3,6.3-25.2,15.2-35.5,26.5
		C92.5,87.1,81,117.4,81,149.5c0,32,11.5,62.4,32.3,85.4c10.2,11.3,22.2,20.2,35.5,26.5c13.9,6.6,28.7,9.9,43.9,9.9
		c37.1,0,71.6-19.9,92.4-53.3l-3.9-21.2l-72.1-54.9l5.4-97.1l-14.9-16.9C197.4,27.8,195,27.7,192.7,27.7L192.7,27.7z"/>
</g>
<ellipse class="st4" cx="423.4" cy="163.5" rx="28" ry="31.3"/>
</svg>
